<mxfile host="Electron" agent="Mozilla/5.0 (Windows NT 10.0; Win64; x64) AppleWebKit/537.36 (KHTML, like Gecko) draw.io/25.0.2 Chrome/128.0.6613.186 Electron/32.2.5 Safari/537.36" version="25.0.2">
  <diagram name="Page-1" id="2cc2dc42-3aac-f2a9-1cec-7a8b7cbee084">
    <mxGraphModel dx="1219" dy="769" grid="1" gridSize="10" guides="1" tooltips="1" connect="1" arrows="1" fold="1" page="1" pageScale="1" pageWidth="1100" pageHeight="850" background="#ffffff" math="0" shadow="0">
      <root>
        <mxCell id="0" />
        <mxCell id="1" parent="0" />
        <mxCell id="7026571954dc6520-1" value="" style="strokeWidth=1;shadow=0;dashed=0;align=center;html=1;shape=mxgraph.mockup.containers.browserWindow;rSize=0;strokeColor=#666666;mainText=,;recursiveResize=0;rounded=0;labelBackgroundColor=none;fontFamily=Verdana;fontSize=12" parent="1" vertex="1">
          <mxGeometry x="25" y="40" width="1050" height="1110" as="geometry" />
        </mxCell>
        <mxCell id="7026571954dc6520-2" value="Page 1" style="strokeWidth=1;shadow=0;dashed=0;align=center;html=1;shape=mxgraph.mockup.containers.anchor;fontSize=17;fontColor=#666666;align=left;" parent="7026571954dc6520-1" vertex="1">
          <mxGeometry x="60" y="12" width="110" height="26" as="geometry" />
        </mxCell>
        <mxCell id="7026571954dc6520-3" value="https://www.default.com" style="strokeWidth=1;shadow=0;dashed=0;align=center;html=1;shape=mxgraph.mockup.containers.anchor;rSize=0;fontSize=17;fontColor=#666666;align=left;" parent="7026571954dc6520-1" vertex="1">
          <mxGeometry x="130" y="60" width="250" height="26" as="geometry" />
        </mxCell>
        <mxCell id="J-Y7H0dTVJ3gCG0rteRI-6" value="" style="verticalLabelPosition=bottom;shadow=0;dashed=0;align=center;html=1;verticalAlign=top;strokeWidth=1;shape=mxgraph.mockup.graphics.simpleIcon;strokeColor=#999999;" parent="7026571954dc6520-1" vertex="1">
          <mxGeometry x="20" y="130" width="50" height="50" as="geometry" />
        </mxCell>
        <mxCell id="J-Y7H0dTVJ3gCG0rteRI-8" value="" style="html=1;shadow=0;dashed=0;shape=mxgraph.bootstrap.rrect;rSize=5;strokeColor=#CED4DA;html=1;whiteSpace=wrap;fillColor=#FFFFFF;fontColor=#7D868C;align=left;spacing=15;spacingLeft=40;fontSize=14;" parent="7026571954dc6520-1" vertex="1">
          <mxGeometry x="300" y="140" width="650" height="30" as="geometry" />
        </mxCell>
        <mxCell id="J-Y7H0dTVJ3gCG0rteRI-9" value="buscar" style="html=1;shadow=0;dashed=0;shape=mxgraph.bootstrap.rightButton;strokeColor=#6C757D;gradientColor=inherit;fontColor=inherit;fillColor=inherit;rSize=5;perimeter=none;whiteSpace=wrap;resizeHeight=1;fontSize=14;align=left;spacing=15;" parent="J-Y7H0dTVJ3gCG0rteRI-8" vertex="1">
          <mxGeometry x="1" width="120" height="30" relative="1" as="geometry">
            <mxPoint x="-120" as="offset" />
          </mxGeometry>
        </mxCell>
        <mxCell id="J-Y7H0dTVJ3gCG0rteRI-10" value="" style="shape=triangle;direction=south;fillColor=#6C767D;strokeColor=none;perimeter=none;" parent="J-Y7H0dTVJ3gCG0rteRI-9" vertex="1">
          <mxGeometry x="1" y="0.5" width="10" height="5" relative="1" as="geometry">
            <mxPoint x="-17" y="-2.5" as="offset" />
          </mxGeometry>
        </mxCell>
        <mxCell id="J-Y7H0dTVJ3gCG0rteRI-11" value="" style="html=1;verticalLabelPosition=bottom;align=center;labelBackgroundColor=#ffffff;verticalAlign=top;strokeWidth=2;shadow=0;dashed=0;shape=mxgraph.ios7.icons.settings;" parent="7026571954dc6520-1" vertex="1">
          <mxGeometry x="1010" y="140" width="30" height="30" as="geometry" />
        </mxCell>
        <mxCell id="J-Y7H0dTVJ3gCG0rteRI-12" value="" style="verticalLabelPosition=bottom;shadow=0;dashed=0;align=center;html=1;verticalAlign=top;strokeWidth=1;shape=mxgraph.mockup.containers.userMale;strokeColor2=#008cff;gradientColor=none;" parent="7026571954dc6520-1" vertex="1">
          <mxGeometry x="970" y="140" width="30" height="30" as="geometry" />
        </mxCell>
        <mxCell id="J-Y7H0dTVJ3gCG0rteRI-13" value="Text" style="text;html=1;align=center;verticalAlign=middle;whiteSpace=wrap;rounded=0;" parent="7026571954dc6520-1" vertex="1">
          <mxGeometry x="60" y="210" width="60" height="30" as="geometry" />
        </mxCell>
        <mxCell id="J-Y7H0dTVJ3gCG0rteRI-14" value="" style="endArrow=none;html=1;rounded=0;exitX=0.999;exitY=0.244;exitDx=0;exitDy=0;exitPerimeter=0;" parent="7026571954dc6520-1" edge="1">
          <mxGeometry width="50" height="50" relative="1" as="geometry">
            <mxPoint x="1059" y="250" as="sourcePoint" />
            <mxPoint y="250" as="targetPoint" />
          </mxGeometry>
        </mxCell>
        <mxCell id="J-Y7H0dTVJ3gCG0rteRI-15" value="Text" style="text;html=1;align=center;verticalAlign=middle;whiteSpace=wrap;rounded=0;" parent="7026571954dc6520-1" vertex="1">
          <mxGeometry x="130" y="210" width="60" height="30" as="geometry" />
        </mxCell>
        <mxCell id="J-Y7H0dTVJ3gCG0rteRI-16" value="Text" style="text;html=1;align=center;verticalAlign=middle;whiteSpace=wrap;rounded=0;" parent="7026571954dc6520-1" vertex="1">
          <mxGeometry x="190" y="210" width="60" height="30" as="geometry" />
        </mxCell>
        <mxCell id="J-Y7H0dTVJ3gCG0rteRI-17" value="Text" style="text;html=1;align=center;verticalAlign=middle;whiteSpace=wrap;rounded=0;" parent="7026571954dc6520-1" vertex="1">
          <mxGeometry x="260" y="210" width="60" height="30" as="geometry" />
        </mxCell>
        <mxCell id="J-Y7H0dTVJ3gCG0rteRI-18" value="Text" style="text;html=1;align=center;verticalAlign=middle;whiteSpace=wrap;rounded=0;" parent="7026571954dc6520-1" vertex="1">
          <mxGeometry x="320" y="210" width="60" height="30" as="geometry" />
        </mxCell>
        <mxCell id="J-Y7H0dTVJ3gCG0rteRI-19" value="Text" style="text;html=1;align=center;verticalAlign=middle;whiteSpace=wrap;rounded=0;" parent="7026571954dc6520-1" vertex="1">
          <mxGeometry x="380" y="210" width="60" height="30" as="geometry" />
        </mxCell>
        <mxCell id="J-Y7H0dTVJ3gCG0rteRI-20" value="Text" style="text;html=1;align=center;verticalAlign=middle;whiteSpace=wrap;rounded=0;" parent="7026571954dc6520-1" vertex="1">
          <mxGeometry x="440" y="210" width="60" height="30" as="geometry" />
        </mxCell>
        <mxCell id="J-Y7H0dTVJ3gCG0rteRI-21" value="Text" style="text;html=1;align=center;verticalAlign=middle;whiteSpace=wrap;rounded=0;" parent="7026571954dc6520-1" vertex="1">
          <mxGeometry x="500" y="210" width="60" height="30" as="geometry" />
        </mxCell>
        <mxCell id="J-Y7H0dTVJ3gCG0rteRI-22" value="Text" style="text;html=1;align=center;verticalAlign=middle;whiteSpace=wrap;rounded=0;" parent="7026571954dc6520-1" vertex="1">
          <mxGeometry x="570" y="210" width="60" height="30" as="geometry" />
        </mxCell>
        <mxCell id="J-Y7H0dTVJ3gCG0rteRI-23" value="Text" style="text;html=1;align=center;verticalAlign=middle;whiteSpace=wrap;rounded=0;" parent="7026571954dc6520-1" vertex="1">
          <mxGeometry x="640" y="210" width="60" height="30" as="geometry" />
        </mxCell>
        <mxCell id="J-Y7H0dTVJ3gCG0rteRI-24" value="Text" style="text;html=1;align=center;verticalAlign=middle;whiteSpace=wrap;rounded=0;" parent="7026571954dc6520-1" vertex="1">
          <mxGeometry x="710" y="210" width="60" height="30" as="geometry" />
        </mxCell>
        <mxCell id="J-Y7H0dTVJ3gCG0rteRI-47" value="Text" style="text;html=1;align=center;verticalAlign=middle;whiteSpace=wrap;rounded=0;" parent="7026571954dc6520-1" vertex="1">
          <mxGeometry x="780" y="210" width="60" height="30" as="geometry" />
        </mxCell>
        <mxCell id="J-Y7H0dTVJ3gCG0rteRI-48" value="Text" style="text;html=1;align=center;verticalAlign=middle;whiteSpace=wrap;rounded=0;" parent="7026571954dc6520-1" vertex="1">
          <mxGeometry x="850" y="210" width="60" height="30" as="geometry" />
        </mxCell>
        <mxCell id="J-Y7H0dTVJ3gCG0rteRI-49" value="Text" style="text;html=1;align=center;verticalAlign=middle;whiteSpace=wrap;rounded=0;" parent="7026571954dc6520-1" vertex="1">
          <mxGeometry x="920" y="210" width="60" height="30" as="geometry" />
        </mxCell>
        <mxCell id="J-Y7H0dTVJ3gCG0rteRI-50" value="" style="endArrow=none;html=1;rounded=0;exitX=0.143;exitY=1.004;exitDx=0;exitDy=0;exitPerimeter=0;" parent="7026571954dc6520-1" source="7026571954dc6520-1" edge="1">
          <mxGeometry width="50" height="50" relative="1" as="geometry">
            <mxPoint x="160" y="840" as="sourcePoint" />
            <mxPoint x="150" y="250" as="targetPoint" />
          </mxGeometry>
        </mxCell>
        <mxCell id="J-Y7H0dTVJ3gCG0rteRI-51" value="EQUIPOS" style="text;html=1;align=center;verticalAlign=middle;whiteSpace=wrap;rounded=0;" parent="7026571954dc6520-1" vertex="1">
          <mxGeometry x="35" y="380" width="60" height="30" as="geometry" />
        </mxCell>
        <mxCell id="J-Y7H0dTVJ3gCG0rteRI-52" value="FIJADOS" style="text;html=1;align=center;verticalAlign=middle;whiteSpace=wrap;rounded=0;" parent="7026571954dc6520-1" vertex="1">
          <mxGeometry x="35" y="260" width="60" height="30" as="geometry" />
        </mxCell>
        <mxCell id="J-Y7H0dTVJ3gCG0rteRI-53" value="Text" style="text;html=1;align=center;verticalAlign=middle;whiteSpace=wrap;rounded=0;" parent="7026571954dc6520-1" vertex="1">
          <mxGeometry x="35" y="290" width="60" height="30" as="geometry" />
        </mxCell>
        <mxCell id="J-Y7H0dTVJ3gCG0rteRI-54" value="Text" style="text;html=1;align=center;verticalAlign=middle;whiteSpace=wrap;rounded=0;" parent="7026571954dc6520-1" vertex="1">
          <mxGeometry x="35" y="310" width="60" height="30" as="geometry" />
        </mxCell>
        <mxCell id="J-Y7H0dTVJ3gCG0rteRI-55" value="Text" style="text;html=1;align=center;verticalAlign=middle;whiteSpace=wrap;rounded=0;" parent="7026571954dc6520-1" vertex="1">
          <mxGeometry x="35" y="330" width="60" height="30" as="geometry" />
        </mxCell>
        <mxCell id="J-Y7H0dTVJ3gCG0rteRI-56" value="Text" style="text;html=1;align=center;verticalAlign=middle;whiteSpace=wrap;rounded=0;" parent="7026571954dc6520-1" vertex="1">
          <mxGeometry x="35" y="350" width="60" height="30" as="geometry" />
        </mxCell>
        <mxCell id="J-Y7H0dTVJ3gCG0rteRI-57" value="Text" style="text;html=1;align=center;verticalAlign=middle;whiteSpace=wrap;rounded=0;" parent="7026571954dc6520-1" vertex="1">
          <mxGeometry x="45" y="410" width="60" height="30" as="geometry" />
        </mxCell>
        <mxCell id="J-Y7H0dTVJ3gCG0rteRI-58" value="Text" style="text;html=1;align=center;verticalAlign=middle;whiteSpace=wrap;rounded=0;" parent="7026571954dc6520-1" vertex="1">
          <mxGeometry x="45" y="430" width="60" height="30" as="geometry" />
        </mxCell>
        <mxCell id="J-Y7H0dTVJ3gCG0rteRI-59" value="Text" style="text;html=1;align=center;verticalAlign=middle;whiteSpace=wrap;rounded=0;" parent="7026571954dc6520-1" vertex="1">
          <mxGeometry x="45" y="450" width="60" height="30" as="geometry" />
        </mxCell>
        <mxCell id="J-Y7H0dTVJ3gCG0rteRI-60" value="Text" style="text;html=1;align=center;verticalAlign=middle;whiteSpace=wrap;rounded=0;" parent="7026571954dc6520-1" vertex="1">
          <mxGeometry x="45" y="470" width="60" height="30" as="geometry" />
        </mxCell>
        <mxCell id="J-Y7H0dTVJ3gCG0rteRI-61" value="Text" style="text;html=1;align=center;verticalAlign=middle;whiteSpace=wrap;rounded=0;" parent="7026571954dc6520-1" vertex="1">
          <mxGeometry x="45" y="490" width="60" height="30" as="geometry" />
        </mxCell>
        <mxCell id="J-Y7H0dTVJ3gCG0rteRI-62" value="Text" style="text;html=1;align=center;verticalAlign=middle;whiteSpace=wrap;rounded=0;" parent="7026571954dc6520-1" vertex="1">
          <mxGeometry x="45" y="510" width="60" height="30" as="geometry" />
        </mxCell>
        <mxCell id="J-Y7H0dTVJ3gCG0rteRI-63" value="Text" style="text;html=1;align=center;verticalAlign=middle;whiteSpace=wrap;rounded=0;" parent="7026571954dc6520-1" vertex="1">
          <mxGeometry x="45" y="530" width="60" height="30" as="geometry" />
        </mxCell>
        <mxCell id="J-Y7H0dTVJ3gCG0rteRI-110" value="INICIO" style="strokeWidth=1;shadow=0;dashed=0;align=center;html=1;shape=mxgraph.mockup.forms.uRect;fontSize=17;fontColor=#666666;align=left;spacingLeft=5;strokeColor=#666666;" parent="7026571954dc6520-1" vertex="1">
          <mxGeometry x="160" y="260" width="70" height="30" as="geometry" />
        </mxCell>
        <mxCell id="J-Y7H0dTVJ3gCG0rteRI-111" value="PROXIMOS" style="strokeWidth=1;shadow=0;dashed=0;align=center;html=1;shape=mxgraph.mockup.forms.uRect;fontSize=17;fontColor=#ffffff;align=left;spacingLeft=5;strokeColor=#008cff;fillColor=#008cff;" parent="7026571954dc6520-1" vertex="1">
          <mxGeometry x="500" y="260" width="100" height="30" as="geometry" />
        </mxCell>
        <mxCell id="J-Y7H0dTVJ3gCG0rteRI-112" value="EN DIRECTO" style="strokeWidth=1;shadow=0;dashed=0;align=center;html=1;shape=mxgraph.mockup.forms.uRect;fontSize=17;fontColor=#666666;align=left;spacingLeft=5;strokeColor=#666666;" parent="7026571954dc6520-1" vertex="1">
          <mxGeometry x="235" y="260" width="125" height="30" as="geometry" />
        </mxCell>
        <mxCell id="J-Y7H0dTVJ3gCG0rteRI-113" value="FINALIZADOS" style="strokeWidth=1;shadow=0;dashed=0;align=center;html=1;shape=mxgraph.mockup.forms.uRect;fontSize=17;fontColor=#666666;align=left;spacingLeft=5;strokeColor=#666666;" parent="7026571954dc6520-1" vertex="1">
          <mxGeometry x="370" y="260" width="120" height="30" as="geometry" />
        </mxCell>
        <mxCell id="J-Y7H0dTVJ3gCG0rteRI-121" value="" style="rounded=0;whiteSpace=wrap;html=1;" parent="7026571954dc6520-1" vertex="1">
          <mxGeometry x="660" y="375" width="350" height="235" as="geometry" />
        </mxCell>
        <mxCell id="J-Y7H0dTVJ3gCG0rteRI-122" value="TABLA DE POSICIONES" style="text;html=1;align=center;verticalAlign=middle;whiteSpace=wrap;rounded=0;" parent="7026571954dc6520-1" vertex="1">
          <mxGeometry x="660" y="300" width="150" height="30" as="geometry" />
        </mxCell>
        <mxCell id="J-Y7H0dTVJ3gCG0rteRI-125" value="INFANTIL" style="strokeColor=none;fillColor=none;rSize=5;perimeter=none;whiteSpace=wrap;resizeWidth=1;align=center;spacing=20;fontSize=14;fontColor=#0085FC;" parent="7026571954dc6520-1" vertex="1">
          <mxGeometry x="820" y="335" width="65" height="40" as="geometry" />
        </mxCell>
        <mxCell id="J-Y7H0dTVJ3gCG0rteRI-124" value="MASTER" style="strokeColor=none;fillColor=none;rSize=5;perimeter=none;whiteSpace=wrap;resizeWidth=1;align=center;spacing=20;fontSize=14;fontColor=#0085FC;" parent="7026571954dc6520-1" vertex="1">
          <mxGeometry x="745" y="335" width="75" height="40" as="geometry" />
        </mxCell>
        <mxCell id="J-Y7H0dTVJ3gCG0rteRI-123" value="JUNIOR" style="html=1;shadow=0;dashed=0;shape=mxgraph.bootstrap.tabTop;strokeColor=#DFDFDF;fillColor=#ffffff;rSize=5;perimeter=none;whiteSpace=wrap;resizeWidth=1;align=center;spacing=20;fontSize=14;fontColor=#4B5259;" parent="7026571954dc6520-1" vertex="1">
          <mxGeometry x="660" y="335" width="80" height="40" as="geometry" />
        </mxCell>
        <mxCell id="J-Y7H0dTVJ3gCG0rteRI-128" value="&lt;ol&gt;&lt;li&gt;&amp;nbsp; &amp;nbsp; &amp;nbsp; &amp;nbsp; &amp;nbsp; &amp;nbsp; &amp;nbsp; &amp;nbsp; &amp;nbsp; &amp;nbsp; &amp;nbsp; &amp;nbsp; &amp;nbsp; &amp;nbsp; &amp;nbsp; &amp;nbsp; &amp;nbsp; Value 1&amp;nbsp; &amp;nbsp; &amp;nbsp; &amp;nbsp; &amp;nbsp; &amp;nbsp; &amp;nbsp; &amp;nbsp;0&amp;nbsp; &amp;nbsp; &amp;nbsp; &amp;nbsp; &amp;nbsp; &amp;nbsp; &amp;nbsp; &amp;nbsp; &amp;nbsp; &amp;nbsp;0&amp;nbsp;&amp;nbsp;&lt;/li&gt;&lt;li&gt;&amp;nbsp; &amp;nbsp; &amp;nbsp; &amp;nbsp; &amp;nbsp; &amp;nbsp; &amp;nbsp; &amp;nbsp; &amp;nbsp; &amp;nbsp; &amp;nbsp; &amp;nbsp; &amp;nbsp; &amp;nbsp; &amp;nbsp; &amp;nbsp; &amp;nbsp; Value 1&amp;nbsp; &amp;nbsp; &amp;nbsp; &amp;nbsp; &amp;nbsp; &amp;nbsp; &amp;nbsp; &amp;nbsp;0&amp;nbsp; &amp;nbsp; &amp;nbsp; &amp;nbsp; &amp;nbsp; &amp;nbsp; &amp;nbsp; &amp;nbsp; &amp;nbsp; &amp;nbsp;0&lt;br&gt;&lt;/li&gt;&lt;li&gt;&amp;nbsp; &amp;nbsp; &amp;nbsp; &amp;nbsp; &amp;nbsp; &amp;nbsp; &amp;nbsp; &amp;nbsp; &amp;nbsp; &amp;nbsp; &amp;nbsp; &amp;nbsp; &amp;nbsp; &amp;nbsp; &amp;nbsp; &amp;nbsp; &amp;nbsp; Value 1&amp;nbsp; &amp;nbsp; &amp;nbsp; &amp;nbsp; &amp;nbsp; &amp;nbsp; &amp;nbsp; &amp;nbsp;0&amp;nbsp; &amp;nbsp; &amp;nbsp; &amp;nbsp; &amp;nbsp; &amp;nbsp; &amp;nbsp; &amp;nbsp; &amp;nbsp; &amp;nbsp;0&lt;br&gt;&lt;/li&gt;&lt;li&gt;&amp;nbsp; &amp;nbsp; &amp;nbsp; &amp;nbsp; &amp;nbsp; &amp;nbsp; &amp;nbsp; &amp;nbsp; &amp;nbsp; &amp;nbsp; &amp;nbsp; &amp;nbsp; &amp;nbsp; &amp;nbsp; &amp;nbsp; &amp;nbsp; &amp;nbsp; Value 1&amp;nbsp; &amp;nbsp; &amp;nbsp; &amp;nbsp; &amp;nbsp; &amp;nbsp; &amp;nbsp; &amp;nbsp;0&amp;nbsp; &amp;nbsp; &amp;nbsp; &amp;nbsp; &amp;nbsp; &amp;nbsp; &amp;nbsp; &amp;nbsp; &amp;nbsp; &amp;nbsp;0&lt;br&gt;&lt;/li&gt;&lt;li&gt;&amp;nbsp; &amp;nbsp; &amp;nbsp; &amp;nbsp; &amp;nbsp; &amp;nbsp; &amp;nbsp; &amp;nbsp; &amp;nbsp; &amp;nbsp; &amp;nbsp; &amp;nbsp; &amp;nbsp; &amp;nbsp; &amp;nbsp; &amp;nbsp; &amp;nbsp; Value 1&amp;nbsp; &amp;nbsp; &amp;nbsp; &amp;nbsp; &amp;nbsp; &amp;nbsp; &amp;nbsp; &amp;nbsp;0&amp;nbsp; &amp;nbsp; &amp;nbsp; &amp;nbsp; &amp;nbsp; &amp;nbsp; &amp;nbsp; &amp;nbsp; &amp;nbsp; &amp;nbsp;0&lt;br&gt;&lt;/li&gt;&lt;li&gt;&amp;nbsp; &amp;nbsp; &amp;nbsp; &amp;nbsp; &amp;nbsp; &amp;nbsp; &amp;nbsp; &amp;nbsp; &amp;nbsp; &amp;nbsp; &amp;nbsp; &amp;nbsp; &amp;nbsp; &amp;nbsp; &amp;nbsp; &amp;nbsp; &amp;nbsp; Value 1&amp;nbsp; &amp;nbsp; &amp;nbsp; &amp;nbsp; &amp;nbsp; &amp;nbsp; &amp;nbsp; &amp;nbsp;0&amp;nbsp; &amp;nbsp; &amp;nbsp; &amp;nbsp; &amp;nbsp; &amp;nbsp; &amp;nbsp; &amp;nbsp; &amp;nbsp; &amp;nbsp;0&lt;br&gt;&lt;/li&gt;&lt;li&gt;&amp;nbsp; &amp;nbsp; &amp;nbsp; &amp;nbsp; &amp;nbsp; &amp;nbsp; &amp;nbsp; &amp;nbsp; &amp;nbsp; &amp;nbsp; &amp;nbsp; &amp;nbsp; &amp;nbsp; &amp;nbsp; &amp;nbsp; &amp;nbsp; &amp;nbsp; Value 1&amp;nbsp; &amp;nbsp; &amp;nbsp; &amp;nbsp; &amp;nbsp; &amp;nbsp; &amp;nbsp; &amp;nbsp;0&amp;nbsp; &amp;nbsp; &amp;nbsp; &amp;nbsp; &amp;nbsp; &amp;nbsp; &amp;nbsp; &amp;nbsp; &amp;nbsp; &amp;nbsp;0&lt;br&gt;&lt;/li&gt;&lt;li&gt;&amp;nbsp; &amp;nbsp; &amp;nbsp; &amp;nbsp; &amp;nbsp; &amp;nbsp; &amp;nbsp; &amp;nbsp; &amp;nbsp; &amp;nbsp; &amp;nbsp; &amp;nbsp; &amp;nbsp; &amp;nbsp; &amp;nbsp; &amp;nbsp; &amp;nbsp; Value 1&amp;nbsp; &amp;nbsp; &amp;nbsp; &amp;nbsp; &amp;nbsp; &amp;nbsp; &amp;nbsp; &amp;nbsp;0&amp;nbsp; &amp;nbsp; &amp;nbsp; &amp;nbsp; &amp;nbsp; &amp;nbsp; &amp;nbsp; &amp;nbsp; &amp;nbsp; &amp;nbsp;0&lt;br&gt;&lt;/li&gt;&lt;li&gt;&amp;nbsp; &amp;nbsp; &amp;nbsp; &amp;nbsp; &amp;nbsp; &amp;nbsp; &amp;nbsp; &amp;nbsp; &amp;nbsp; &amp;nbsp; &amp;nbsp; &amp;nbsp; &amp;nbsp; &amp;nbsp; &amp;nbsp; &amp;nbsp; &amp;nbsp; Value 1&amp;nbsp; &amp;nbsp; &amp;nbsp; &amp;nbsp; &amp;nbsp; &amp;nbsp; &amp;nbsp; &amp;nbsp;0&amp;nbsp; &amp;nbsp; &amp;nbsp; &amp;nbsp; &amp;nbsp; &amp;nbsp; &amp;nbsp; &amp;nbsp; &amp;nbsp; &amp;nbsp;0&lt;br&gt;&lt;/li&gt;&lt;li&gt;&amp;nbsp; &amp;nbsp; &amp;nbsp; &amp;nbsp; &amp;nbsp; &amp;nbsp; &amp;nbsp; &amp;nbsp; &amp;nbsp; &amp;nbsp; &amp;nbsp; &amp;nbsp; &amp;nbsp; &amp;nbsp; &amp;nbsp; &amp;nbsp; &amp;nbsp; Value 1&amp;nbsp; &amp;nbsp; &amp;nbsp; &amp;nbsp; &amp;nbsp; &amp;nbsp; &amp;nbsp; &amp;nbsp;0&amp;nbsp; &amp;nbsp; &amp;nbsp; &amp;nbsp; &amp;nbsp; &amp;nbsp; &amp;nbsp; &amp;nbsp; &amp;nbsp; &amp;nbsp;0&lt;br&gt;&lt;/li&gt;&lt;li&gt;&amp;nbsp; &amp;nbsp; &amp;nbsp; &amp;nbsp; &amp;nbsp; &amp;nbsp; &amp;nbsp; &amp;nbsp; &amp;nbsp; &amp;nbsp; &amp;nbsp; &amp;nbsp; &amp;nbsp; &amp;nbsp; &amp;nbsp; &amp;nbsp; &amp;nbsp; Value 1&amp;nbsp; &amp;nbsp; &amp;nbsp; &amp;nbsp; &amp;nbsp; &amp;nbsp; &amp;nbsp; &amp;nbsp;0&amp;nbsp; &amp;nbsp; &amp;nbsp; &amp;nbsp; &amp;nbsp; &amp;nbsp; &amp;nbsp; &amp;nbsp; &amp;nbsp; &amp;nbsp;0&lt;br&gt;&lt;/li&gt;&lt;li&gt;&amp;nbsp; &amp;nbsp; &amp;nbsp; &amp;nbsp; &amp;nbsp; &amp;nbsp; &amp;nbsp; &amp;nbsp; &amp;nbsp; &amp;nbsp; &amp;nbsp; &amp;nbsp; &amp;nbsp; &amp;nbsp; &amp;nbsp; &amp;nbsp; &amp;nbsp; Value 1&amp;nbsp; &amp;nbsp; &amp;nbsp; &amp;nbsp; &amp;nbsp; &amp;nbsp; &amp;nbsp; &amp;nbsp;0&amp;nbsp; &amp;nbsp; &amp;nbsp; &amp;nbsp; &amp;nbsp; &amp;nbsp; &amp;nbsp; &amp;nbsp; &amp;nbsp; &amp;nbsp;0&lt;br&gt;&lt;/li&gt;&lt;/ol&gt;" style="text;strokeColor=none;fillColor=none;html=1;whiteSpace=wrap;verticalAlign=middle;overflow=hidden;" parent="7026571954dc6520-1" vertex="1">
          <mxGeometry x="660" y="380" width="340" height="230" as="geometry" />
        </mxCell>
        <mxCell id="J-Y7H0dTVJ3gCG0rteRI-129" value="POSICION" style="text;html=1;align=center;verticalAlign=middle;whiteSpace=wrap;rounded=0;" parent="7026571954dc6520-1" vertex="1">
          <mxGeometry x="670" y="375" width="60" height="30" as="geometry" />
        </mxCell>
        <mxCell id="J-Y7H0dTVJ3gCG0rteRI-130" value="EQUIPO" style="text;html=1;align=center;verticalAlign=middle;whiteSpace=wrap;rounded=0;" parent="7026571954dc6520-1" vertex="1">
          <mxGeometry x="805" y="375" width="60" height="30" as="geometry" />
        </mxCell>
        <mxCell id="J-Y7H0dTVJ3gCG0rteRI-131" value="PTS" style="text;html=1;align=center;verticalAlign=middle;whiteSpace=wrap;rounded=0;" parent="7026571954dc6520-1" vertex="1">
          <mxGeometry x="885" y="375" width="60" height="30" as="geometry" />
        </mxCell>
        <mxCell id="J-Y7H0dTVJ3gCG0rteRI-132" value="PPJ" style="text;html=1;align=center;verticalAlign=middle;whiteSpace=wrap;rounded=0;" parent="7026571954dc6520-1" vertex="1">
          <mxGeometry x="950" y="375" width="60" height="30" as="geometry" />
        </mxCell>
        <mxCell id="J-Y7H0dTVJ3gCG0rteRI-245" value="" style="endArrow=none;html=1;rounded=0;" parent="7026571954dc6520-1" edge="1">
          <mxGeometry width="50" height="50" relative="1" as="geometry">
            <mxPoint x="150" y="860" as="sourcePoint" />
            <mxPoint x="1050" y="860" as="targetPoint" />
          </mxGeometry>
        </mxCell>
        <mxCell id="J-Y7H0dTVJ3gCG0rteRI-247" value="&lt;h1 style=&quot;margin-top: 0px;&quot;&gt;Heading&lt;/h1&gt;&lt;p&gt;Lorem ipsum dolor sit amet, consectetur adipisicing elit, sed do eiusmod tempor incididunt ut labore et dolore magna aliqua.&lt;/p&gt;" style="text;html=1;whiteSpace=wrap;overflow=hidden;rounded=0;" parent="7026571954dc6520-1" vertex="1">
          <mxGeometry x="155" y="870" width="280" height="120" as="geometry" />
        </mxCell>
        <mxCell id="J-Y7H0dTVJ3gCG0rteRI-248" value="" style="verticalLabelPosition=bottom;shadow=0;dashed=0;align=center;html=1;verticalAlign=top;strokeWidth=1;shape=mxgraph.mockup.graphics.simpleIcon;strokeColor=#999999;" parent="7026571954dc6520-1" vertex="1">
          <mxGeometry x="155" y="970" width="50" height="50" as="geometry" />
        </mxCell>
        <mxCell id="J-Y7H0dTVJ3gCG0rteRI-249" value="" style="verticalLabelPosition=bottom;shadow=0;dashed=0;align=center;html=1;verticalAlign=top;strokeWidth=1;shape=mxgraph.mockup.graphics.simpleIcon;strokeColor=#999999;" parent="7026571954dc6520-1" vertex="1">
          <mxGeometry x="215" y="970" width="50" height="50" as="geometry" />
        </mxCell>
        <mxCell id="J-Y7H0dTVJ3gCG0rteRI-251" value="Publicidad" style="text;html=1;align=center;verticalAlign=middle;whiteSpace=wrap;rounded=0;" parent="7026571954dc6520-1" vertex="1">
          <mxGeometry x="680" y="880" width="65" height="30" as="geometry" />
        </mxCell>
        <mxCell id="J-Y7H0dTVJ3gCG0rteRI-252" value="Configuracion de cookies" style="text;html=1;align=center;verticalAlign=middle;whiteSpace=wrap;rounded=0;" parent="7026571954dc6520-1" vertex="1">
          <mxGeometry x="680" y="900" width="145" height="30" as="geometry" />
        </mxCell>
        <mxCell id="J-Y7H0dTVJ3gCG0rteRI-253" value="Canales" style="text;html=1;align=center;verticalAlign=middle;whiteSpace=wrap;rounded=0;" parent="7026571954dc6520-1" vertex="1">
          <mxGeometry x="680" y="920" width="55" height="30" as="geometry" />
        </mxCell>
        <mxCell id="J-Y7H0dTVJ3gCG0rteRI-254" value="Jugadores" style="text;html=1;align=center;verticalAlign=middle;whiteSpace=wrap;rounded=0;" parent="7026571954dc6520-1" vertex="1">
          <mxGeometry x="680" y="940" width="65" height="30" as="geometry" />
        </mxCell>
        <mxCell id="J-Y7H0dTVJ3gCG0rteRI-255" value="Sello Editorial" style="text;html=1;align=center;verticalAlign=middle;whiteSpace=wrap;rounded=0;" parent="7026571954dc6520-1" vertex="1">
          <mxGeometry x="680" y="960" width="85" height="30" as="geometry" />
        </mxCell>
        <mxCell id="J-Y7H0dTVJ3gCG0rteRI-256" value="Aviso Legal" style="text;html=1;align=center;verticalAlign=middle;whiteSpace=wrap;rounded=0;" parent="7026571954dc6520-1" vertex="1">
          <mxGeometry x="855" y="880" width="70" height="30" as="geometry" />
        </mxCell>
        <mxCell id="J-Y7H0dTVJ3gCG0rteRI-257" value="Declaracion de Privacidad" style="text;html=1;align=center;verticalAlign=middle;whiteSpace=wrap;rounded=0;" parent="7026571954dc6520-1" vertex="1">
          <mxGeometry x="855" y="900" width="150" height="30" as="geometry" />
        </mxCell>
        <mxCell id="J-Y7H0dTVJ3gCG0rteRI-258" value="Trabajos" style="text;html=1;align=center;verticalAlign=middle;whiteSpace=wrap;rounded=0;" parent="7026571954dc6520-1" vertex="1">
          <mxGeometry x="855" y="920" width="50" height="30" as="geometry" />
        </mxCell>
        <mxCell id="J-Y7H0dTVJ3gCG0rteRI-259" value="Condiciones de Uso" style="text;html=1;align=center;verticalAlign=middle;whiteSpace=wrap;rounded=0;" parent="7026571954dc6520-1" vertex="1">
          <mxGeometry x="855" y="940" width="115" height="30" as="geometry" />
        </mxCell>
        <mxCell id="J-Y7H0dTVJ3gCG0rteRI-260" value="Trabajos" style="text;html=1;align=center;verticalAlign=middle;whiteSpace=wrap;rounded=0;" parent="7026571954dc6520-1" vertex="1">
          <mxGeometry x="860" y="960" width="50" height="30" as="geometry" />
        </mxCell>
        <mxCell id="J-Y7H0dTVJ3gCG0rteRI-261" value="Contactos" style="text;html=1;align=center;verticalAlign=middle;whiteSpace=wrap;rounded=0;" parent="7026571954dc6520-1" vertex="1">
          <mxGeometry x="860" y="980" width="55" height="30" as="geometry" />
        </mxCell>
        <mxCell id="J-Y7H0dTVJ3gCG0rteRI-262" value="" style="verticalLabelPosition=bottom;verticalAlign=top;html=1;shape=mxgraph.flowchart.or;" parent="7026571954dc6520-1" vertex="1">
          <mxGeometry x="865" y="1030" width="30" height="30" as="geometry" />
        </mxCell>
        <mxCell id="J-Y7H0dTVJ3gCG0rteRI-263" value="" style="line;strokeWidth=2;html=1;" parent="7026571954dc6520-1" vertex="1">
          <mxGeometry x="185" y="1060" width="800" height="10" as="geometry" />
        </mxCell>
        <mxCell id="J-Y7H0dTVJ3gCG0rteRI-264" value="&lt;span style=&quot;text-align: left;&quot;&gt;@ Lorem ipsum&amp;nbsp;&lt;/span&gt;" style="text;html=1;align=center;verticalAlign=middle;whiteSpace=wrap;rounded=0;" parent="7026571954dc6520-1" vertex="1">
          <mxGeometry x="180" y="1080" width="95" height="30" as="geometry" />
        </mxCell>
        <mxCell id="J-Y7H0dTVJ3gCG0rteRI-265" value="" style="shape=table;startSize=0;container=1;collapsible=1;childLayout=tableLayout;fixedRows=1;rowLines=0;fontStyle=0;align=center;resizeLast=1;strokeColor=none;fillColor=none;collapsible=0;" parent="7026571954dc6520-1" vertex="1">
          <mxGeometry x="795" y="1070" width="180" height="30" as="geometry" />
        </mxCell>
        <mxCell id="J-Y7H0dTVJ3gCG0rteRI-266" value="" style="shape=tableRow;horizontal=0;startSize=0;swimlaneHead=0;swimlaneBody=0;fillColor=none;collapsible=0;dropTarget=0;points=[[0,0.5],[1,0.5]];portConstraint=eastwest;top=0;left=0;right=0;bottom=1;" parent="J-Y7H0dTVJ3gCG0rteRI-265" vertex="1">
          <mxGeometry width="180" height="30" as="geometry" />
        </mxCell>
        <mxCell id="J-Y7H0dTVJ3gCG0rteRI-267" value="PK" style="shape=partialRectangle;connectable=0;fillColor=none;top=0;left=0;bottom=0;right=0;fontStyle=1;overflow=hidden;whiteSpace=wrap;html=1;" parent="J-Y7H0dTVJ3gCG0rteRI-266" vertex="1">
          <mxGeometry width="30" height="30" as="geometry">
            <mxRectangle width="30" height="30" as="alternateBounds" />
          </mxGeometry>
        </mxCell>
        <mxCell id="J-Y7H0dTVJ3gCG0rteRI-268" value="UniqueID" style="shape=partialRectangle;connectable=0;fillColor=none;top=0;left=0;bottom=0;right=0;align=left;spacingLeft=6;fontStyle=5;overflow=hidden;whiteSpace=wrap;html=1;" parent="J-Y7H0dTVJ3gCG0rteRI-266" vertex="1">
          <mxGeometry x="30" width="150" height="30" as="geometry">
            <mxRectangle width="150" height="30" as="alternateBounds" />
          </mxGeometry>
        </mxCell>
        <mxCell id="J-Y7H0dTVJ3gCG0rteRI-281" value="&lt;h1 style=&quot;margin-top: 0px;&quot;&gt;&lt;br&gt;&lt;/h1&gt;" style="text;html=1;whiteSpace=wrap;overflow=hidden;rounded=0;" parent="7026571954dc6520-1" vertex="1">
          <mxGeometry x="230" y="1660" width="180" height="120" as="geometry" />
        </mxCell>
        <mxCell id="J-Y7H0dTVJ3gCG0rteRI-283" value="&lt;h1 style=&quot;margin-top: 0px;&quot;&gt;&lt;br&gt;&lt;/h1&gt;" style="text;html=1;whiteSpace=wrap;overflow=hidden;rounded=0;" parent="7026571954dc6520-1" vertex="1">
          <mxGeometry x="435" y="1670" width="180" height="120" as="geometry" />
        </mxCell>
        <mxCell id="Oz8TfK4kT-FRKvT7_30r-1" value="&lt;font style=&quot;font-size: 16px;&quot;&gt;JUNIOR&lt;/font&gt;" style="text;html=1;align=center;verticalAlign=middle;whiteSpace=wrap;rounded=0;" vertex="1" parent="7026571954dc6520-1">
          <mxGeometry x="160" y="320" width="60" height="30" as="geometry" />
        </mxCell>
        <mxCell id="Oz8TfK4kT-FRKvT7_30r-2" value="" style="line;strokeWidth=2;html=1;" vertex="1" parent="7026571954dc6520-1">
          <mxGeometry x="160" y="340" width="480" height="10" as="geometry" />
        </mxCell>
        <mxCell id="Oz8TfK4kT-FRKvT7_30r-3" value="&lt;font style=&quot;font-size: 16px;&quot;&gt;EQUIPO A&lt;/font&gt;" style="text;html=1;align=center;verticalAlign=middle;whiteSpace=wrap;rounded=0;" vertex="1" parent="7026571954dc6520-1">
          <mxGeometry x="170" y="390" width="90" height="30" as="geometry" />
        </mxCell>
        <mxCell id="Oz8TfK4kT-FRKvT7_30r-4" value="&lt;font style=&quot;font-size: 16px;&quot;&gt;EQUIPO B&lt;/font&gt;" style="text;html=1;align=center;verticalAlign=middle;whiteSpace=wrap;rounded=0;" vertex="1" parent="7026571954dc6520-1">
          <mxGeometry x="535" y="400" width="90" height="30" as="geometry" />
        </mxCell>
        <mxCell id="Oz8TfK4kT-FRKvT7_30r-7" value="&lt;font style=&quot;font-size: 16px;&quot;&gt;VS&lt;/font&gt;" style="text;html=1;align=center;verticalAlign=middle;whiteSpace=wrap;rounded=0;" vertex="1" parent="7026571954dc6520-1">
          <mxGeometry x="345" y="390" width="90" height="30" as="geometry" />
        </mxCell>
        <mxCell id="Oz8TfK4kT-FRKvT7_30r-15" value="12/02/2025" style="text;html=1;align=center;verticalAlign=middle;whiteSpace=wrap;rounded=0;" vertex="1" parent="7026571954dc6520-1">
          <mxGeometry x="170" y="370" width="60" height="30" as="geometry" />
        </mxCell>
        <mxCell id="Oz8TfK4kT-FRKvT7_30r-28" value="&lt;font style=&quot;font-size: 16px;&quot;&gt;MASTER&lt;/font&gt;" style="text;html=1;align=center;verticalAlign=middle;whiteSpace=wrap;rounded=0;" vertex="1" parent="7026571954dc6520-1">
          <mxGeometry x="170" y="670" width="60" height="30" as="geometry" />
        </mxCell>
        <mxCell id="Oz8TfK4kT-FRKvT7_30r-29" value="" style="line;strokeWidth=2;html=1;" vertex="1" parent="7026571954dc6520-1">
          <mxGeometry x="160" y="690" width="480" height="10" as="geometry" />
        </mxCell>
        <mxCell id="Oz8TfK4kT-FRKvT7_30r-30" value="&lt;font style=&quot;font-size: 16px;&quot;&gt;EQUIPO C&lt;/font&gt;" style="text;html=1;align=center;verticalAlign=middle;whiteSpace=wrap;rounded=0;" vertex="1" parent="7026571954dc6520-1">
          <mxGeometry x="175" y="730" width="90" height="30" as="geometry" />
        </mxCell>
        <mxCell id="Oz8TfK4kT-FRKvT7_30r-31" value="&lt;font style=&quot;font-size: 16px;&quot;&gt;EQUIPO D&lt;/font&gt;" style="text;html=1;align=center;verticalAlign=middle;whiteSpace=wrap;rounded=0;" vertex="1" parent="7026571954dc6520-1">
          <mxGeometry x="535" y="730" width="90" height="30" as="geometry" />
        </mxCell>
        <mxCell id="Oz8TfK4kT-FRKvT7_30r-34" value="&lt;font style=&quot;font-size: 16px;&quot;&gt;VS&lt;/font&gt;" style="text;html=1;align=center;verticalAlign=middle;whiteSpace=wrap;rounded=0;" vertex="1" parent="7026571954dc6520-1">
          <mxGeometry x="350" y="730" width="90" height="30" as="geometry" />
        </mxCell>
        <mxCell id="Oz8TfK4kT-FRKvT7_30r-96" value="12/02/2025" style="text;html=1;align=center;verticalAlign=middle;whiteSpace=wrap;rounded=0;" vertex="1" parent="7026571954dc6520-1">
          <mxGeometry x="170" y="700" width="60" height="30" as="geometry" />
        </mxCell>
        <mxCell id="Oz8TfK4kT-FRKvT7_30r-99" value="&lt;font style=&quot;font-size: 16px;&quot;&gt;EQUIPO A&lt;/font&gt;" style="text;html=1;align=center;verticalAlign=middle;whiteSpace=wrap;rounded=0;" vertex="1" parent="7026571954dc6520-1">
          <mxGeometry x="162.5" y="435" width="90" height="30" as="geometry" />
        </mxCell>
        <mxCell id="Oz8TfK4kT-FRKvT7_30r-100" value="&lt;font style=&quot;font-size: 16px;&quot;&gt;EQUIPO B&lt;/font&gt;" style="text;html=1;align=center;verticalAlign=middle;whiteSpace=wrap;rounded=0;" vertex="1" parent="7026571954dc6520-1">
          <mxGeometry x="527.5" y="445" width="90" height="30" as="geometry" />
        </mxCell>
        <mxCell id="Oz8TfK4kT-FRKvT7_30r-101" value="&lt;font style=&quot;font-size: 16px;&quot;&gt;VS&lt;/font&gt;" style="text;html=1;align=center;verticalAlign=middle;whiteSpace=wrap;rounded=0;" vertex="1" parent="7026571954dc6520-1">
          <mxGeometry x="337.5" y="435" width="90" height="30" as="geometry" />
        </mxCell>
        <mxCell id="Oz8TfK4kT-FRKvT7_30r-102" value="12/02/2025" style="text;html=1;align=center;verticalAlign=middle;whiteSpace=wrap;rounded=0;" vertex="1" parent="7026571954dc6520-1">
          <mxGeometry x="162.5" y="415" width="60" height="30" as="geometry" />
        </mxCell>
        <mxCell id="Oz8TfK4kT-FRKvT7_30r-103" value="&lt;font style=&quot;font-size: 16px;&quot;&gt;EQUIPO A&lt;/font&gt;" style="text;html=1;align=center;verticalAlign=middle;whiteSpace=wrap;rounded=0;" vertex="1" parent="7026571954dc6520-1">
          <mxGeometry x="167.5" y="475" width="90" height="30" as="geometry" />
        </mxCell>
        <mxCell id="Oz8TfK4kT-FRKvT7_30r-104" value="&lt;font style=&quot;font-size: 16px;&quot;&gt;EQUIPO B&lt;/font&gt;" style="text;html=1;align=center;verticalAlign=middle;whiteSpace=wrap;rounded=0;" vertex="1" parent="7026571954dc6520-1">
          <mxGeometry x="532.5" y="485" width="90" height="30" as="geometry" />
        </mxCell>
        <mxCell id="Oz8TfK4kT-FRKvT7_30r-105" value="&lt;font style=&quot;font-size: 16px;&quot;&gt;VS&lt;/font&gt;" style="text;html=1;align=center;verticalAlign=middle;whiteSpace=wrap;rounded=0;" vertex="1" parent="7026571954dc6520-1">
          <mxGeometry x="342.5" y="475" width="90" height="30" as="geometry" />
        </mxCell>
        <mxCell id="Oz8TfK4kT-FRKvT7_30r-106" value="12/02/2025" style="text;html=1;align=center;verticalAlign=middle;whiteSpace=wrap;rounded=0;" vertex="1" parent="7026571954dc6520-1">
          <mxGeometry x="167.5" y="455" width="60" height="30" as="geometry" />
        </mxCell>
        <mxCell id="Oz8TfK4kT-FRKvT7_30r-107" value="&lt;font style=&quot;font-size: 16px;&quot;&gt;EQUIPO A&lt;/font&gt;" style="text;html=1;align=center;verticalAlign=middle;whiteSpace=wrap;rounded=0;" vertex="1" parent="7026571954dc6520-1">
          <mxGeometry x="167.5" y="515" width="90" height="30" as="geometry" />
        </mxCell>
        <mxCell id="Oz8TfK4kT-FRKvT7_30r-108" value="&lt;font style=&quot;font-size: 16px;&quot;&gt;EQUIPO B&lt;/font&gt;" style="text;html=1;align=center;verticalAlign=middle;whiteSpace=wrap;rounded=0;" vertex="1" parent="7026571954dc6520-1">
          <mxGeometry x="532.5" y="525" width="90" height="30" as="geometry" />
        </mxCell>
        <mxCell id="Oz8TfK4kT-FRKvT7_30r-109" value="&lt;font style=&quot;font-size: 16px;&quot;&gt;VS&lt;/font&gt;" style="text;html=1;align=center;verticalAlign=middle;whiteSpace=wrap;rounded=0;" vertex="1" parent="7026571954dc6520-1">
          <mxGeometry x="342.5" y="515" width="90" height="30" as="geometry" />
        </mxCell>
        <mxCell id="Oz8TfK4kT-FRKvT7_30r-110" value="12/02/2025" style="text;html=1;align=center;verticalAlign=middle;whiteSpace=wrap;rounded=0;" vertex="1" parent="7026571954dc6520-1">
          <mxGeometry x="167.5" y="495" width="60" height="30" as="geometry" />
        </mxCell>
        <mxCell id="Oz8TfK4kT-FRKvT7_30r-111" value="&lt;font style=&quot;font-size: 16px;&quot;&gt;EQUIPO A&lt;/font&gt;" style="text;html=1;align=center;verticalAlign=middle;whiteSpace=wrap;rounded=0;" vertex="1" parent="7026571954dc6520-1">
          <mxGeometry x="172.5" y="550" width="90" height="30" as="geometry" />
        </mxCell>
        <mxCell id="Oz8TfK4kT-FRKvT7_30r-112" value="&lt;font style=&quot;font-size: 16px;&quot;&gt;EQUIPO B&lt;/font&gt;" style="text;html=1;align=center;verticalAlign=middle;whiteSpace=wrap;rounded=0;" vertex="1" parent="7026571954dc6520-1">
          <mxGeometry x="537.5" y="560" width="90" height="30" as="geometry" />
        </mxCell>
        <mxCell id="Oz8TfK4kT-FRKvT7_30r-113" value="&lt;font style=&quot;font-size: 16px;&quot;&gt;VS&lt;/font&gt;" style="text;html=1;align=center;verticalAlign=middle;whiteSpace=wrap;rounded=0;" vertex="1" parent="7026571954dc6520-1">
          <mxGeometry x="347.5" y="550" width="90" height="30" as="geometry" />
        </mxCell>
        <mxCell id="Oz8TfK4kT-FRKvT7_30r-114" value="12/02/2025" style="text;html=1;align=center;verticalAlign=middle;whiteSpace=wrap;rounded=0;" vertex="1" parent="7026571954dc6520-1">
          <mxGeometry x="172.5" y="530" width="60" height="30" as="geometry" />
        </mxCell>
        <mxCell id="Oz8TfK4kT-FRKvT7_30r-115" value="&lt;font style=&quot;font-size: 16px;&quot;&gt;EQUIPO A&lt;/font&gt;" style="text;html=1;align=center;verticalAlign=middle;whiteSpace=wrap;rounded=0;" vertex="1" parent="7026571954dc6520-1">
          <mxGeometry x="167.5" y="600" width="90" height="30" as="geometry" />
        </mxCell>
        <mxCell id="Oz8TfK4kT-FRKvT7_30r-116" value="&lt;font style=&quot;font-size: 16px;&quot;&gt;EQUIPO B&lt;/font&gt;" style="text;html=1;align=center;verticalAlign=middle;whiteSpace=wrap;rounded=0;" vertex="1" parent="7026571954dc6520-1">
          <mxGeometry x="532.5" y="610" width="90" height="30" as="geometry" />
        </mxCell>
        <mxCell id="Oz8TfK4kT-FRKvT7_30r-117" value="&lt;font style=&quot;font-size: 16px;&quot;&gt;VS&lt;/font&gt;" style="text;html=1;align=center;verticalAlign=middle;whiteSpace=wrap;rounded=0;" vertex="1" parent="7026571954dc6520-1">
          <mxGeometry x="342.5" y="600" width="90" height="30" as="geometry" />
        </mxCell>
        <mxCell id="Oz8TfK4kT-FRKvT7_30r-118" value="12/02/2025" style="text;html=1;align=center;verticalAlign=middle;whiteSpace=wrap;rounded=0;" vertex="1" parent="7026571954dc6520-1">
          <mxGeometry x="167.5" y="580" width="60" height="30" as="geometry" />
        </mxCell>
        <mxCell id="Oz8TfK4kT-FRKvT7_30r-119" value="&lt;font style=&quot;font-size: 16px;&quot;&gt;EQUIPO A&lt;/font&gt;" style="text;html=1;align=center;verticalAlign=middle;whiteSpace=wrap;rounded=0;" vertex="1" parent="7026571954dc6520-1">
          <mxGeometry x="172.5" y="770" width="90" height="30" as="geometry" />
        </mxCell>
        <mxCell id="Oz8TfK4kT-FRKvT7_30r-120" value="&lt;font style=&quot;font-size: 16px;&quot;&gt;EQUIPO B&lt;/font&gt;" style="text;html=1;align=center;verticalAlign=middle;whiteSpace=wrap;rounded=0;" vertex="1" parent="7026571954dc6520-1">
          <mxGeometry x="537.5" y="780" width="90" height="30" as="geometry" />
        </mxCell>
        <mxCell id="Oz8TfK4kT-FRKvT7_30r-121" value="&lt;font style=&quot;font-size: 16px;&quot;&gt;VS&lt;/font&gt;" style="text;html=1;align=center;verticalAlign=middle;whiteSpace=wrap;rounded=0;" vertex="1" parent="7026571954dc6520-1">
          <mxGeometry x="347.5" y="770" width="90" height="30" as="geometry" />
        </mxCell>
        <mxCell id="Oz8TfK4kT-FRKvT7_30r-122" value="12/02/2025" style="text;html=1;align=center;verticalAlign=middle;whiteSpace=wrap;rounded=0;" vertex="1" parent="7026571954dc6520-1">
          <mxGeometry x="172.5" y="750" width="60" height="30" as="geometry" />
        </mxCell>
        <mxCell id="Oz8TfK4kT-FRKvT7_30r-123" value="&lt;font style=&quot;font-size: 16px;&quot;&gt;EQUIPO A&lt;/font&gt;" style="text;html=1;align=center;verticalAlign=middle;whiteSpace=wrap;rounded=0;" vertex="1" parent="7026571954dc6520-1">
          <mxGeometry x="175" y="810" width="90" height="30" as="geometry" />
        </mxCell>
        <mxCell id="Oz8TfK4kT-FRKvT7_30r-124" value="&lt;font style=&quot;font-size: 16px;&quot;&gt;EQUIPO B&lt;/font&gt;" style="text;html=1;align=center;verticalAlign=middle;whiteSpace=wrap;rounded=0;" vertex="1" parent="7026571954dc6520-1">
          <mxGeometry x="540" y="820" width="90" height="30" as="geometry" />
        </mxCell>
        <mxCell id="Oz8TfK4kT-FRKvT7_30r-125" value="&lt;font style=&quot;font-size: 16px;&quot;&gt;VS&lt;/font&gt;" style="text;html=1;align=center;verticalAlign=middle;whiteSpace=wrap;rounded=0;" vertex="1" parent="7026571954dc6520-1">
          <mxGeometry x="350" y="810" width="90" height="30" as="geometry" />
        </mxCell>
        <mxCell id="Oz8TfK4kT-FRKvT7_30r-126" value="12/02/2025" style="text;html=1;align=center;verticalAlign=middle;whiteSpace=wrap;rounded=0;" vertex="1" parent="7026571954dc6520-1">
          <mxGeometry x="175" y="790" width="60" height="30" as="geometry" />
        </mxCell>
      </root>
    </mxGraphModel>
  </diagram>
</mxfile>
